<mxfile host="app.diagrams.net" modified="2021-07-15T17:32:33.673Z" agent="5.0 (Windows NT 10.0; Win64; x64) AppleWebKit/537.36 (KHTML, like Gecko) Chrome/91.0.4472.124 Safari/537.36" etag="W6TOgNUTijSKsI0G0req" version="14.8.6" type="github" pages="2">
  <diagram id="YS19dX1pj8gQ7npMbOew" name="Page-1">
    <mxGraphModel dx="1303" dy="845" grid="1" gridSize="10" guides="1" tooltips="1" connect="1" arrows="1" fold="1" page="1" pageScale="1" pageWidth="850" pageHeight="1100" math="0" shadow="0">
      <root>
        <mxCell id="0" />
        <mxCell id="1" parent="0" />
        <mxCell id="_d9M04DH2eVFDw5MNcZJ-53" value="" style="outlineConnect=0;html=1;whiteSpace=wrap;fontSize=12;fontStyle=0;verticalAlign=top;align=center;dashed=1;spacingTop=3;strokeWidth=4;fillColor=none;strokeColor=#FF0000;" parent="1" vertex="1">
          <mxGeometry x="185" y="705" width="620" height="200" as="geometry" />
        </mxCell>
        <mxCell id="_d9M04DH2eVFDw5MNcZJ-22" value="" style="outlineConnect=0;html=1;whiteSpace=wrap;fontSize=12;fontStyle=0;verticalAlign=top;align=center;dashed=1;spacingTop=3;strokeWidth=4;fillColor=none;strokeColor=#FF0000;" parent="1" vertex="1">
          <mxGeometry x="380" y="284" width="370" height="240" as="geometry" />
        </mxCell>
        <mxCell id="_d9M04DH2eVFDw5MNcZJ-17" value="" style="outlineConnect=0;html=1;whiteSpace=wrap;fontSize=12;fontStyle=0;verticalAlign=top;align=center;dashed=1;spacingTop=3;strokeWidth=4;fillColor=none;strokeColor=#FF0000;" parent="1" vertex="1">
          <mxGeometry x="477.5" y="105" width="120" height="75" as="geometry" />
        </mxCell>
        <mxCell id="9x1H_0t3VZo4HXwmnzUf-2" value="SERVER" style="shape=umlFrame;whiteSpace=wrap;html=1;width=90;height=40;" parent="1" vertex="1">
          <mxGeometry x="130" y="440" width="690" height="490" as="geometry" />
        </mxCell>
        <mxCell id="9x1H_0t3VZo4HXwmnzUf-1" value="" style="shape=cylinder3;whiteSpace=wrap;html=1;boundedLbl=1;backgroundOutline=1;size=15;" parent="1" vertex="1">
          <mxGeometry x="400" y="760" width="100" height="100" as="geometry" />
        </mxCell>
        <mxCell id="9x1H_0t3VZo4HXwmnzUf-6" value="&lt;font style=&quot;font-size: 14px&quot;&gt;Team&lt;/font&gt;" style="html=1;" parent="1" vertex="1">
          <mxGeometry x="605" y="40" width="110" height="50" as="geometry" />
        </mxCell>
        <mxCell id="9x1H_0t3VZo4HXwmnzUf-7" value="&lt;font style=&quot;font-size: 14px&quot;&gt;Onion Routing&lt;/font&gt;" style="html=1;" parent="1" vertex="1">
          <mxGeometry x="390" y="410" width="130" height="60" as="geometry" />
        </mxCell>
        <mxCell id="9x1H_0t3VZo4HXwmnzUf-8" value="" style="shape=cylinder3;whiteSpace=wrap;html=1;boundedLbl=1;backgroundOutline=1;size=15;" parent="1" vertex="1">
          <mxGeometry x="680" y="760" width="100" height="100" as="geometry" />
        </mxCell>
        <mxCell id="9x1H_0t3VZo4HXwmnzUf-9" value="&lt;font style=&quot;font-size: 14px&quot;&gt;Admin&lt;/font&gt;" style="html=1;" parent="1" vertex="1">
          <mxGeometry x="415" y="810" width="70" height="30" as="geometry" />
        </mxCell>
        <mxCell id="9x1H_0t3VZo4HXwmnzUf-10" value="" style="shape=cylinder3;whiteSpace=wrap;html=1;boundedLbl=1;backgroundOutline=1;size=15;" parent="1" vertex="1">
          <mxGeometry x="540" y="760" width="100" height="100" as="geometry" />
        </mxCell>
        <mxCell id="9x1H_0t3VZo4HXwmnzUf-11" value="&lt;font style=&quot;font-size: 14px&quot;&gt;Data&lt;/font&gt;" style="html=1;" parent="1" vertex="1">
          <mxGeometry x="555" y="810" width="70" height="30" as="geometry" />
        </mxCell>
        <mxCell id="9x1H_0t3VZo4HXwmnzUf-12" value="&lt;font style=&quot;font-size: 14px&quot;&gt;Team&lt;/font&gt;" style="html=1;" parent="1" vertex="1">
          <mxGeometry x="695" y="810" width="70" height="30" as="geometry" />
        </mxCell>
        <mxCell id="9x1H_0t3VZo4HXwmnzUf-13" value="&lt;font style=&quot;font-size: 14px&quot;&gt;Personal&lt;br&gt;Data Store&lt;/font&gt;" style="html=1;" parent="1" vertex="1">
          <mxGeometry x="495" y="120" width="90" height="50" as="geometry" />
        </mxCell>
        <mxCell id="9x1H_0t3VZo4HXwmnzUf-15" value="&lt;font style=&quot;font-size: 14px&quot;&gt;Handle&lt;/font&gt;" style="text;html=1;strokeColor=none;fillColor=none;align=center;verticalAlign=middle;whiteSpace=wrap;rounded=0;" parent="1" vertex="1">
          <mxGeometry x="548" y="76" width="40" height="20" as="geometry" />
        </mxCell>
        <mxCell id="9x1H_0t3VZo4HXwmnzUf-17" value="&lt;font style=&quot;font-size: 14px&quot;&gt;Anonymous&lt;br&gt;reputation-based&lt;br&gt;Blacklist&lt;/font&gt;" style="html=1;" parent="1" vertex="1">
          <mxGeometry x="590" y="445" width="140" height="70" as="geometry" />
        </mxCell>
        <mxCell id="9x1H_0t3VZo4HXwmnzUf-20" value="&lt;font style=&quot;font-size: 14px&quot;&gt;User&lt;/font&gt;" style="html=1;" parent="1" vertex="1">
          <mxGeometry x="375" y="40" width="110" height="50" as="geometry" />
        </mxCell>
        <mxCell id="_d9M04DH2eVFDw5MNcZJ-36" style="edgeStyle=orthogonalEdgeStyle;rounded=0;orthogonalLoop=1;jettySize=auto;html=1;exitX=0;exitY=0.5;exitDx=0;exitDy=0;" parent="1" source="9x1H_0t3VZo4HXwmnzUf-21" target="_d9M04DH2eVFDw5MNcZJ-35" edge="1">
          <mxGeometry relative="1" as="geometry" />
        </mxCell>
        <mxCell id="9x1H_0t3VZo4HXwmnzUf-21" value="&lt;font style=&quot;font-size: 14px&quot;&gt;&lt;b&gt;GUI&lt;/b&gt;&lt;/font&gt;" style="rounded=0;whiteSpace=wrap;html=1;" parent="1" vertex="1">
          <mxGeometry x="415" y="550" width="80" height="50" as="geometry" />
        </mxCell>
        <mxCell id="9x1H_0t3VZo4HXwmnzUf-23" value="&lt;font style=&quot;font-size: 14px&quot;&gt;Use&lt;/font&gt;" style="text;html=1;strokeColor=none;fillColor=none;align=center;verticalAlign=middle;whiteSpace=wrap;rounded=0;" parent="1" vertex="1">
          <mxGeometry x="540" y="181" width="40" height="20" as="geometry" />
        </mxCell>
        <mxCell id="9x1H_0t3VZo4HXwmnzUf-24" value="&lt;font style=&quot;font-size: 14px&quot;&gt;Admin&lt;/font&gt;" style="html=1;" parent="1" vertex="1">
          <mxGeometry x="270" y="180" width="110" height="50" as="geometry" />
        </mxCell>
        <mxCell id="_d9M04DH2eVFDw5MNcZJ-2" value="&lt;span style=&quot;font-size: 14px&quot;&gt;Authenticator&lt;/span&gt;" style="html=1;" parent="1" vertex="1">
          <mxGeometry x="482.5" y="214" width="115" height="50" as="geometry" />
        </mxCell>
        <mxCell id="_d9M04DH2eVFDw5MNcZJ-6" value="&lt;font style=&quot;font-size: 14px&quot;&gt;Interacts&lt;/font&gt;" style="text;html=1;strokeColor=none;fillColor=none;align=center;verticalAlign=middle;whiteSpace=wrap;rounded=0;" parent="1" vertex="1">
          <mxGeometry x="532.5" y="264" width="80" height="20" as="geometry" />
        </mxCell>
        <mxCell id="_d9M04DH2eVFDw5MNcZJ-14" value="&lt;font color=&quot;#ff0000&quot; size=&quot;1&quot;&gt;&lt;b style=&quot;font-size: 14px&quot;&gt;HIDE&lt;/b&gt;&lt;/font&gt;" style="text;html=1;strokeColor=none;fillColor=none;align=center;verticalAlign=middle;whiteSpace=wrap;rounded=0;dashed=1;" parent="1" vertex="1">
          <mxGeometry x="750" y="400" width="55" height="20" as="geometry" />
        </mxCell>
        <mxCell id="_d9M04DH2eVFDw5MNcZJ-16" value="&lt;font color=&quot;#ff0000&quot; size=&quot;1&quot;&gt;&lt;b style=&quot;font-size: 14px&quot;&gt;ABSTRACT&lt;/b&gt;&lt;/font&gt;" style="text;html=1;strokeColor=none;fillColor=none;align=center;verticalAlign=middle;whiteSpace=wrap;rounded=0;dashed=1;" parent="1" vertex="1">
          <mxGeometry x="715" y="565" width="95" height="20" as="geometry" />
        </mxCell>
        <mxCell id="_d9M04DH2eVFDw5MNcZJ-18" value="&lt;font color=&quot;#ff0000&quot; size=&quot;1&quot;&gt;&lt;b style=&quot;font-size: 14px&quot;&gt;SEPARATE&lt;/b&gt;&lt;/font&gt;" style="text;html=1;strokeColor=none;fillColor=none;align=center;verticalAlign=middle;whiteSpace=wrap;rounded=0;dashed=1;" parent="1" vertex="1">
          <mxGeometry x="610" y="135" width="70" height="20" as="geometry" />
        </mxCell>
        <mxCell id="9x1H_0t3VZo4HXwmnzUf-3" value="&lt;font style=&quot;font-size: 14px&quot;&gt;Encription with&lt;br&gt;user managed key&lt;/font&gt;" style="html=1;" parent="1" vertex="1">
          <mxGeometry x="467.5" y="300" width="145" height="50" as="geometry" />
        </mxCell>
        <mxCell id="_d9M04DH2eVFDw5MNcZJ-15" value="" style="outlineConnect=0;html=1;whiteSpace=wrap;fontSize=12;fontStyle=0;verticalAlign=top;align=center;dashed=1;spacingTop=3;strokeWidth=4;fillColor=none;strokeColor=#FF0000;" parent="1" vertex="1">
          <mxGeometry x="640" y="595" width="150" height="80" as="geometry" />
        </mxCell>
        <mxCell id="_d9M04DH2eVFDw5MNcZJ-12" value="&lt;span style=&quot;font-size: 14px&quot;&gt;Location&lt;br&gt;granularity&lt;/span&gt;" style="html=1;" parent="1" vertex="1">
          <mxGeometry x="660" y="607.5" width="97.5" height="55" as="geometry" />
        </mxCell>
        <mxCell id="_d9M04DH2eVFDw5MNcZJ-32" value="" style="endArrow=classic;startArrow=classic;html=1;entryX=0.5;entryY=1;entryDx=0;entryDy=0;exitX=0.5;exitY=0;exitDx=0;exitDy=0;" parent="1" source="9x1H_0t3VZo4HXwmnzUf-21" target="9x1H_0t3VZo4HXwmnzUf-7" edge="1">
          <mxGeometry width="50" height="50" relative="1" as="geometry">
            <mxPoint x="500" y="510" as="sourcePoint" />
            <mxPoint x="500" y="500" as="targetPoint" />
          </mxGeometry>
        </mxCell>
        <mxCell id="_d9M04DH2eVFDw5MNcZJ-33" value="" style="endArrow=classic;startArrow=classic;html=1;entryX=0.5;entryY=1;entryDx=0;entryDy=0;exitX=1;exitY=0.5;exitDx=0;exitDy=0;" parent="1" source="9x1H_0t3VZo4HXwmnzUf-21" target="9x1H_0t3VZo4HXwmnzUf-17" edge="1">
          <mxGeometry width="50" height="50" relative="1" as="geometry">
            <mxPoint x="620" y="630" as="sourcePoint" />
            <mxPoint x="670" y="580" as="targetPoint" />
            <Array as="points">
              <mxPoint x="660" y="575" />
            </Array>
          </mxGeometry>
        </mxCell>
        <mxCell id="_d9M04DH2eVFDw5MNcZJ-39" style="edgeStyle=orthogonalEdgeStyle;rounded=0;orthogonalLoop=1;jettySize=auto;html=1;exitX=0.5;exitY=0;exitDx=0;exitDy=0;entryX=0.5;entryY=0;entryDx=0;entryDy=0;" parent="1" source="_d9M04DH2eVFDw5MNcZJ-35" target="9x1H_0t3VZo4HXwmnzUf-20" edge="1">
          <mxGeometry relative="1" as="geometry">
            <Array as="points">
              <mxPoint x="248" y="20" />
              <mxPoint x="430" y="20" />
            </Array>
          </mxGeometry>
        </mxCell>
        <mxCell id="_d9M04DH2eVFDw5MNcZJ-35" value="&lt;span style=&quot;font-size: 14px&quot;&gt;Metadata&lt;br&gt;Manager&lt;br&gt;&lt;/span&gt;" style="html=1;" parent="1" vertex="1">
          <mxGeometry x="199" y="547.5" width="97.5" height="55" as="geometry" />
        </mxCell>
        <mxCell id="_d9M04DH2eVFDw5MNcZJ-41" value="" style="endArrow=none;html=1;" parent="1" edge="1">
          <mxGeometry width="50" height="50" relative="1" as="geometry">
            <mxPoint x="660" y="20" as="sourcePoint" />
            <mxPoint x="430" y="20" as="targetPoint" />
          </mxGeometry>
        </mxCell>
        <mxCell id="_d9M04DH2eVFDw5MNcZJ-42" value="" style="endArrow=classic;html=1;entryX=0.5;entryY=0;entryDx=0;entryDy=0;" parent="1" target="9x1H_0t3VZo4HXwmnzUf-6" edge="1">
          <mxGeometry width="50" height="50" relative="1" as="geometry">
            <mxPoint x="660" y="20" as="sourcePoint" />
            <mxPoint x="550" y="120" as="targetPoint" />
          </mxGeometry>
        </mxCell>
        <mxCell id="_d9M04DH2eVFDw5MNcZJ-44" value="" style="outlineConnect=0;html=1;whiteSpace=wrap;fontSize=12;fontStyle=0;verticalAlign=top;align=center;dashed=1;spacingTop=3;strokeWidth=4;fillColor=none;strokeColor=#FF0000;" parent="1" vertex="1">
          <mxGeometry x="175" y="535" width="150" height="80" as="geometry" />
        </mxCell>
        <mxCell id="_d9M04DH2eVFDw5MNcZJ-45" value="&lt;font color=&quot;#ff0000&quot; size=&quot;1&quot;&gt;&lt;b style=&quot;font-size: 14px&quot;&gt;MINIMIZE&lt;/b&gt;&lt;/font&gt;" style="text;html=1;strokeColor=none;fillColor=none;align=center;verticalAlign=middle;whiteSpace=wrap;rounded=0;dashed=1;" parent="1" vertex="1">
          <mxGeometry x="199" y="625" width="95" height="20" as="geometry" />
        </mxCell>
        <mxCell id="_d9M04DH2eVFDw5MNcZJ-47" value="&lt;span style=&quot;font-size: 14px&quot;&gt;Web Accessible&lt;br&gt;Files (web server)&lt;br&gt;&lt;/span&gt;" style="html=1;" parent="1" vertex="1">
          <mxGeometry x="202.5" y="776.25" width="132.5" height="57.5" as="geometry" />
        </mxCell>
        <mxCell id="_d9M04DH2eVFDw5MNcZJ-52" value="" style="endArrow=classic;html=1;exitX=0.5;exitY=1;exitDx=0;exitDy=0;entryX=0;entryY=0.5;entryDx=0;entryDy=0;" parent="1" source="9x1H_0t3VZo4HXwmnzUf-21" target="_d9M04DH2eVFDw5MNcZJ-12" edge="1">
          <mxGeometry width="50" height="50" relative="1" as="geometry">
            <mxPoint x="530" y="610" as="sourcePoint" />
            <mxPoint x="580" y="560" as="targetPoint" />
            <Array as="points">
              <mxPoint x="455" y="635" />
            </Array>
          </mxGeometry>
        </mxCell>
        <mxCell id="_d9M04DH2eVFDw5MNcZJ-55" value="&lt;font color=&quot;#ff0000&quot; size=&quot;1&quot;&gt;&lt;b style=&quot;font-size: 14px&quot;&gt;SEPARATE&lt;/b&gt;&lt;/font&gt;" style="text;html=1;strokeColor=none;fillColor=none;align=center;verticalAlign=middle;whiteSpace=wrap;rounded=0;dashed=1;" parent="1" vertex="1">
          <mxGeometry x="202.5" y="679" width="95" height="20" as="geometry" />
        </mxCell>
        <mxCell id="_d9M04DH2eVFDw5MNcZJ-56" style="edgeStyle=orthogonalEdgeStyle;rounded=0;orthogonalLoop=1;jettySize=auto;html=1;exitX=0.5;exitY=1;exitDx=0;exitDy=0;" parent="1" source="9x1H_0t3VZo4HXwmnzUf-21" target="9x1H_0t3VZo4HXwmnzUf-21" edge="1">
          <mxGeometry relative="1" as="geometry" />
        </mxCell>
        <mxCell id="_d9M04DH2eVFDw5MNcZJ-59" value="&lt;span style=&quot;font-size: 14px&quot;&gt;Request / Response&lt;/span&gt;" style="text;html=1;strokeColor=none;fillColor=none;align=center;verticalAlign=middle;whiteSpace=wrap;rounded=0;" parent="1" vertex="1">
          <mxGeometry x="440" y="680" width="150" height="20" as="geometry" />
        </mxCell>
        <mxCell id="_d9M04DH2eVFDw5MNcZJ-61" value="&lt;font style=&quot;font-size: 14px&quot;&gt;Approves&lt;/font&gt;" style="text;html=1;strokeColor=none;fillColor=none;align=center;verticalAlign=middle;whiteSpace=wrap;rounded=0;" parent="1" vertex="1">
          <mxGeometry x="170" y="315" width="80" height="20" as="geometry" />
        </mxCell>
        <mxCell id="_d9M04DH2eVFDw5MNcZJ-63" value="" style="endArrow=classic;startArrow=classic;html=1;entryX=0.25;entryY=1;entryDx=0;entryDy=0;" parent="1" target="9x1H_0t3VZo4HXwmnzUf-21" edge="1">
          <mxGeometry width="50" height="50" relative="1" as="geometry">
            <mxPoint x="435" y="700" as="sourcePoint" />
            <mxPoint x="400" y="640" as="targetPoint" />
          </mxGeometry>
        </mxCell>
        <mxCell id="_d9M04DH2eVFDw5MNcZJ-66" value="DB" style="shape=umlFrame;whiteSpace=wrap;html=1;width=50;height=25;" parent="1" vertex="1">
          <mxGeometry x="380" y="730" width="410" height="150" as="geometry" />
        </mxCell>
        <mxCell id="_d9M04DH2eVFDw5MNcZJ-67" value="" style="endArrow=classic;startArrow=classic;html=1;entryX=1;entryY=0.5;entryDx=0;entryDy=0;exitX=-0.009;exitY=0.504;exitDx=0;exitDy=0;exitPerimeter=0;" parent="1" source="_d9M04DH2eVFDw5MNcZJ-66" target="_d9M04DH2eVFDw5MNcZJ-47" edge="1">
          <mxGeometry width="50" height="50" relative="1" as="geometry">
            <mxPoint x="530" y="710" as="sourcePoint" />
            <mxPoint x="580" y="660" as="targetPoint" />
          </mxGeometry>
        </mxCell>
        <mxCell id="Q0nxOfmYJq4fi4KcC9MJ-5" value="" style="endArrow=classic;startArrow=classic;html=1;entryX=0.5;entryY=1;entryDx=0;entryDy=0;exitX=0.5;exitY=0;exitDx=0;exitDy=0;" edge="1" parent="1" source="9x1H_0t3VZo4HXwmnzUf-7" target="9x1H_0t3VZo4HXwmnzUf-24">
          <mxGeometry width="50" height="50" relative="1" as="geometry">
            <mxPoint x="280" y="340" as="sourcePoint" />
            <mxPoint x="330" y="290" as="targetPoint" />
            <Array as="points">
              <mxPoint x="455" y="370" />
              <mxPoint x="325" y="370" />
            </Array>
          </mxGeometry>
        </mxCell>
        <mxCell id="Q0nxOfmYJq4fi4KcC9MJ-6" value="&lt;font style=&quot;font-size: 14px&quot;&gt;Send / Receive data&lt;/font&gt;" style="text;html=1;strokeColor=none;fillColor=none;align=center;verticalAlign=middle;whiteSpace=wrap;rounded=0;" vertex="1" parent="1">
          <mxGeometry x="457.5" y="380" width="155" height="20" as="geometry" />
        </mxCell>
        <mxCell id="Q0nxOfmYJq4fi4KcC9MJ-7" value="" style="endArrow=classic;html=1;exitX=0.5;exitY=1;exitDx=0;exitDy=0;" edge="1" parent="1" source="9x1H_0t3VZo4HXwmnzUf-3">
          <mxGeometry width="50" height="50" relative="1" as="geometry">
            <mxPoint x="450" y="260" as="sourcePoint" />
            <mxPoint x="455" y="410" as="targetPoint" />
            <Array as="points">
              <mxPoint x="540" y="370" />
              <mxPoint x="455" y="370" />
            </Array>
          </mxGeometry>
        </mxCell>
        <mxCell id="Q0nxOfmYJq4fi4KcC9MJ-10" value="" style="endArrow=classic;startArrow=classic;html=1;entryX=1;entryY=0.5;entryDx=0;entryDy=0;exitX=0.5;exitY=0;exitDx=0;exitDy=0;" edge="1" parent="1" source="9x1H_0t3VZo4HXwmnzUf-13" target="9x1H_0t3VZo4HXwmnzUf-20">
          <mxGeometry width="50" height="50" relative="1" as="geometry">
            <mxPoint x="400" y="180" as="sourcePoint" />
            <mxPoint x="450" y="130" as="targetPoint" />
            <Array as="points">
              <mxPoint x="540" y="65" />
            </Array>
          </mxGeometry>
        </mxCell>
        <mxCell id="Q0nxOfmYJq4fi4KcC9MJ-11" value="" style="endArrow=classic;startArrow=classic;html=1;exitX=0;exitY=0.5;exitDx=0;exitDy=0;" edge="1" parent="1" source="9x1H_0t3VZo4HXwmnzUf-6">
          <mxGeometry width="50" height="50" relative="1" as="geometry">
            <mxPoint x="495" y="75.00000000000006" as="sourcePoint" />
            <mxPoint x="540" y="120" as="targetPoint" />
            <Array as="points">
              <mxPoint x="540" y="65" />
            </Array>
          </mxGeometry>
        </mxCell>
        <mxCell id="Q0nxOfmYJq4fi4KcC9MJ-12" value="" style="endArrow=classic;startArrow=classic;html=1;entryX=0.5;entryY=1;entryDx=0;entryDy=0;exitX=0.5;exitY=0;exitDx=0;exitDy=0;" edge="1" parent="1" source="_d9M04DH2eVFDw5MNcZJ-2" target="9x1H_0t3VZo4HXwmnzUf-13">
          <mxGeometry width="50" height="50" relative="1" as="geometry">
            <mxPoint x="410" y="230" as="sourcePoint" />
            <mxPoint x="460" y="180" as="targetPoint" />
          </mxGeometry>
        </mxCell>
        <mxCell id="Q0nxOfmYJq4fi4KcC9MJ-13" value="" style="endArrow=classic;startArrow=classic;html=1;entryX=0.5;entryY=1;entryDx=0;entryDy=0;exitX=0.5;exitY=0;exitDx=0;exitDy=0;" edge="1" parent="1" source="9x1H_0t3VZo4HXwmnzUf-3" target="_d9M04DH2eVFDw5MNcZJ-2">
          <mxGeometry width="50" height="50" relative="1" as="geometry">
            <mxPoint x="390" y="180" as="sourcePoint" />
            <mxPoint x="440" y="130" as="targetPoint" />
          </mxGeometry>
        </mxCell>
      </root>
    </mxGraphModel>
  </diagram>
  <diagram id="NkYS_Z1H_qbWjJAhmAsN" name="Page-2">
    <mxGraphModel dx="920" dy="596" grid="1" gridSize="10" guides="1" tooltips="1" connect="1" arrows="1" fold="1" page="1" pageScale="1" pageWidth="850" pageHeight="1100" math="0" shadow="0">
      <root>
        <mxCell id="6tT8eFnmWyRCT3pd-sS8-0" />
        <mxCell id="6tT8eFnmWyRCT3pd-sS8-1" parent="6tT8eFnmWyRCT3pd-sS8-0" />
        <mxCell id="6tT8eFnmWyRCT3pd-sS8-2" value="" style="outlineConnect=0;html=1;whiteSpace=wrap;fontSize=12;fontStyle=0;verticalAlign=top;align=center;dashed=1;spacingTop=3;strokeWidth=4;fillColor=none;strokeColor=#FF0000;" parent="6tT8eFnmWyRCT3pd-sS8-1" vertex="1">
          <mxGeometry x="185" y="705" width="620" height="200" as="geometry" />
        </mxCell>
        <mxCell id="6tT8eFnmWyRCT3pd-sS8-4" value="" style="outlineConnect=0;html=1;whiteSpace=wrap;fontSize=12;fontStyle=0;verticalAlign=top;align=center;dashed=1;spacingTop=3;strokeWidth=4;fillColor=none;strokeColor=#FF0000;" parent="6tT8eFnmWyRCT3pd-sS8-1" vertex="1">
          <mxGeometry x="450" y="105" width="180" height="165" as="geometry" />
        </mxCell>
        <mxCell id="6tT8eFnmWyRCT3pd-sS8-5" value="SERVER" style="shape=umlFrame;whiteSpace=wrap;html=1;width=90;height=40;" parent="6tT8eFnmWyRCT3pd-sS8-1" vertex="1">
          <mxGeometry x="130" y="440" width="690" height="490" as="geometry" />
        </mxCell>
        <mxCell id="6tT8eFnmWyRCT3pd-sS8-6" value="" style="shape=cylinder3;whiteSpace=wrap;html=1;boundedLbl=1;backgroundOutline=1;size=15;" parent="6tT8eFnmWyRCT3pd-sS8-1" vertex="1">
          <mxGeometry x="400" y="760" width="100" height="100" as="geometry" />
        </mxCell>
        <mxCell id="6tT8eFnmWyRCT3pd-sS8-8" style="edgeStyle=orthogonalEdgeStyle;rounded=0;orthogonalLoop=1;jettySize=auto;html=1;exitX=0;exitY=0.5;exitDx=0;exitDy=0;entryX=0.5;entryY=0;entryDx=0;entryDy=0;" parent="6tT8eFnmWyRCT3pd-sS8-1" source="6tT8eFnmWyRCT3pd-sS8-9" target="6tT8eFnmWyRCT3pd-sS8-17" edge="1">
          <mxGeometry relative="1" as="geometry" />
        </mxCell>
        <mxCell id="6tT8eFnmWyRCT3pd-sS8-9" value="&lt;font style=&quot;font-size: 14px&quot;&gt;Team&lt;/font&gt;" style="html=1;" parent="6tT8eFnmWyRCT3pd-sS8-1" vertex="1">
          <mxGeometry x="605" y="40" width="110" height="50" as="geometry" />
        </mxCell>
        <mxCell id="6tT8eFnmWyRCT3pd-sS8-11" value="" style="shape=cylinder3;whiteSpace=wrap;html=1;boundedLbl=1;backgroundOutline=1;size=15;" parent="6tT8eFnmWyRCT3pd-sS8-1" vertex="1">
          <mxGeometry x="680" y="760" width="100" height="100" as="geometry" />
        </mxCell>
        <mxCell id="6tT8eFnmWyRCT3pd-sS8-12" value="&lt;font style=&quot;font-size: 14px&quot;&gt;Admin&lt;/font&gt;" style="html=1;" parent="6tT8eFnmWyRCT3pd-sS8-1" vertex="1">
          <mxGeometry x="415" y="810" width="70" height="30" as="geometry" />
        </mxCell>
        <mxCell id="6tT8eFnmWyRCT3pd-sS8-13" value="" style="shape=cylinder3;whiteSpace=wrap;html=1;boundedLbl=1;backgroundOutline=1;size=15;" parent="6tT8eFnmWyRCT3pd-sS8-1" vertex="1">
          <mxGeometry x="540" y="760" width="100" height="100" as="geometry" />
        </mxCell>
        <mxCell id="6tT8eFnmWyRCT3pd-sS8-14" value="&lt;font style=&quot;font-size: 14px&quot;&gt;Data&lt;/font&gt;" style="html=1;" parent="6tT8eFnmWyRCT3pd-sS8-1" vertex="1">
          <mxGeometry x="555" y="810" width="70" height="30" as="geometry" />
        </mxCell>
        <mxCell id="6tT8eFnmWyRCT3pd-sS8-15" value="&lt;font style=&quot;font-size: 14px&quot;&gt;Team&lt;/font&gt;" style="html=1;" parent="6tT8eFnmWyRCT3pd-sS8-1" vertex="1">
          <mxGeometry x="695" y="810" width="70" height="30" as="geometry" />
        </mxCell>
        <mxCell id="WOFoK-ftA_ZLG-GcIct8-3" style="edgeStyle=orthogonalEdgeStyle;rounded=0;orthogonalLoop=1;jettySize=auto;html=1;exitX=0.5;exitY=1;exitDx=0;exitDy=0;entryX=0.5;entryY=0;entryDx=0;entryDy=0;" edge="1" parent="6tT8eFnmWyRCT3pd-sS8-1" source="6tT8eFnmWyRCT3pd-sS8-17" target="6tT8eFnmWyRCT3pd-sS8-36">
          <mxGeometry relative="1" as="geometry" />
        </mxCell>
        <mxCell id="6tT8eFnmWyRCT3pd-sS8-17" value="&lt;font style=&quot;font-size: 14px&quot;&gt;Personal&lt;br&gt;Data Store&lt;/font&gt;" style="html=1;" parent="6tT8eFnmWyRCT3pd-sS8-1" vertex="1">
          <mxGeometry x="495" y="120" width="90" height="50" as="geometry" />
        </mxCell>
        <mxCell id="6tT8eFnmWyRCT3pd-sS8-18" value="&lt;font style=&quot;font-size: 14px&quot;&gt;Handle&lt;/font&gt;" style="text;html=1;strokeColor=none;fillColor=none;align=center;verticalAlign=middle;whiteSpace=wrap;rounded=0;" parent="6tT8eFnmWyRCT3pd-sS8-1" vertex="1">
          <mxGeometry x="548" y="76" width="40" height="20" as="geometry" />
        </mxCell>
        <mxCell id="6tT8eFnmWyRCT3pd-sS8-19" value="&lt;font style=&quot;font-size: 14px&quot;&gt;Send data&lt;/font&gt;" style="text;html=1;strokeColor=none;fillColor=none;align=center;verticalAlign=middle;whiteSpace=wrap;rounded=0;" parent="6tT8eFnmWyRCT3pd-sS8-1" vertex="1">
          <mxGeometry x="480" y="400" width="80" height="20" as="geometry" />
        </mxCell>
        <mxCell id="6tT8eFnmWyRCT3pd-sS8-20" value="&lt;span style=&quot;font-size: 14px&quot;&gt;Unusual Activities&lt;/span&gt;" style="html=1;" parent="6tT8eFnmWyRCT3pd-sS8-1" vertex="1">
          <mxGeometry x="597.5" y="460" width="130" height="55" as="geometry" />
        </mxCell>
        <mxCell id="6tT8eFnmWyRCT3pd-sS8-21" style="edgeStyle=orthogonalEdgeStyle;rounded=0;orthogonalLoop=1;jettySize=auto;html=1;exitX=1;exitY=0.5;exitDx=0;exitDy=0;entryX=0.5;entryY=0;entryDx=0;entryDy=0;" parent="6tT8eFnmWyRCT3pd-sS8-1" source="6tT8eFnmWyRCT3pd-sS8-22" target="6tT8eFnmWyRCT3pd-sS8-17" edge="1">
          <mxGeometry relative="1" as="geometry" />
        </mxCell>
        <mxCell id="6tT8eFnmWyRCT3pd-sS8-22" value="&lt;font style=&quot;font-size: 14px&quot;&gt;User&lt;/font&gt;" style="html=1;" parent="6tT8eFnmWyRCT3pd-sS8-1" vertex="1">
          <mxGeometry x="375" y="40" width="110" height="50" as="geometry" />
        </mxCell>
        <mxCell id="6tT8eFnmWyRCT3pd-sS8-23" style="edgeStyle=orthogonalEdgeStyle;rounded=0;orthogonalLoop=1;jettySize=auto;html=1;exitX=0;exitY=0.5;exitDx=0;exitDy=0;" parent="6tT8eFnmWyRCT3pd-sS8-1" source="6tT8eFnmWyRCT3pd-sS8-24" target="6tT8eFnmWyRCT3pd-sS8-42" edge="1">
          <mxGeometry relative="1" as="geometry" />
        </mxCell>
        <mxCell id="6tT8eFnmWyRCT3pd-sS8-24" value="&lt;font style=&quot;font-size: 14px&quot;&gt;&lt;b&gt;GUI&lt;/b&gt;&lt;/font&gt;" style="rounded=0;whiteSpace=wrap;html=1;" parent="6tT8eFnmWyRCT3pd-sS8-1" vertex="1">
          <mxGeometry x="415" y="550" width="80" height="50" as="geometry" />
        </mxCell>
        <mxCell id="6tT8eFnmWyRCT3pd-sS8-25" value="&lt;font style=&quot;font-size: 14px&quot;&gt;Use&lt;/font&gt;" style="text;html=1;strokeColor=none;fillColor=none;align=center;verticalAlign=middle;whiteSpace=wrap;rounded=0;" parent="6tT8eFnmWyRCT3pd-sS8-1" vertex="1">
          <mxGeometry x="540" y="181" width="40" height="20" as="geometry" />
        </mxCell>
        <mxCell id="WOFoK-ftA_ZLG-GcIct8-8" style="edgeStyle=orthogonalEdgeStyle;rounded=0;orthogonalLoop=1;jettySize=auto;html=1;exitX=0.5;exitY=1;exitDx=0;exitDy=0;entryX=0.75;entryY=0;entryDx=0;entryDy=0;" edge="1" parent="6tT8eFnmWyRCT3pd-sS8-1" source="6tT8eFnmWyRCT3pd-sS8-27" target="6tT8eFnmWyRCT3pd-sS8-24">
          <mxGeometry relative="1" as="geometry" />
        </mxCell>
        <mxCell id="6tT8eFnmWyRCT3pd-sS8-27" value="&lt;font style=&quot;font-size: 14px&quot;&gt;Admin&lt;/font&gt;" style="html=1;" parent="6tT8eFnmWyRCT3pd-sS8-1" vertex="1">
          <mxGeometry x="270" y="180" width="110" height="50" as="geometry" />
        </mxCell>
        <mxCell id="6tT8eFnmWyRCT3pd-sS8-28" value="" style="endArrow=classic;html=1;exitX=0.5;exitY=0;exitDx=0;exitDy=0;" parent="6tT8eFnmWyRCT3pd-sS8-1" source="6tT8eFnmWyRCT3pd-sS8-24" edge="1">
          <mxGeometry width="50" height="50" relative="1" as="geometry">
            <mxPoint x="422.5" y="410" as="sourcePoint" />
            <mxPoint x="455" y="390" as="targetPoint" />
          </mxGeometry>
        </mxCell>
        <mxCell id="6tT8eFnmWyRCT3pd-sS8-29" value="&lt;font style=&quot;font-size: 14px&quot;&gt;Receive data&lt;/font&gt;" style="text;html=1;strokeColor=none;fillColor=none;align=center;verticalAlign=middle;whiteSpace=wrap;rounded=0;" parent="6tT8eFnmWyRCT3pd-sS8-1" vertex="1">
          <mxGeometry x="307" y="410" width="90" height="20" as="geometry" />
        </mxCell>
        <mxCell id="WOFoK-ftA_ZLG-GcIct8-7" style="edgeStyle=orthogonalEdgeStyle;rounded=0;orthogonalLoop=1;jettySize=auto;html=1;exitX=0.5;exitY=1;exitDx=0;exitDy=0;entryX=0.75;entryY=0;entryDx=0;entryDy=0;" edge="1" parent="6tT8eFnmWyRCT3pd-sS8-1" source="6tT8eFnmWyRCT3pd-sS8-31" target="6tT8eFnmWyRCT3pd-sS8-24">
          <mxGeometry relative="1" as="geometry">
            <Array as="points">
              <mxPoint x="542" y="390" />
              <mxPoint x="475" y="390" />
            </Array>
          </mxGeometry>
        </mxCell>
        <mxCell id="6tT8eFnmWyRCT3pd-sS8-31" value="&lt;span style=&quot;font-size: 14px&quot;&gt;Authenticator&lt;/span&gt;" style="html=1;" parent="6tT8eFnmWyRCT3pd-sS8-1" vertex="1">
          <mxGeometry x="485" y="297" width="115" height="50" as="geometry" />
        </mxCell>
        <mxCell id="6tT8eFnmWyRCT3pd-sS8-33" value="&lt;font color=&quot;#ff0000&quot; size=&quot;1&quot;&gt;&lt;b style=&quot;font-size: 14px&quot;&gt;INFORM&lt;/b&gt;&lt;/font&gt;" style="text;html=1;strokeColor=none;fillColor=none;align=center;verticalAlign=middle;whiteSpace=wrap;rounded=0;dashed=1;" parent="6tT8eFnmWyRCT3pd-sS8-1" vertex="1">
          <mxGeometry x="750" y="477.5" width="55" height="20" as="geometry" />
        </mxCell>
        <mxCell id="6tT8eFnmWyRCT3pd-sS8-34" value="&lt;font color=&quot;#ff0000&quot; size=&quot;1&quot;&gt;&lt;b style=&quot;font-size: 14px&quot;&gt;ABSTRACT&lt;/b&gt;&lt;/font&gt;" style="text;html=1;strokeColor=none;fillColor=none;align=center;verticalAlign=middle;whiteSpace=wrap;rounded=0;dashed=1;" parent="6tT8eFnmWyRCT3pd-sS8-1" vertex="1">
          <mxGeometry x="715" y="565" width="95" height="20" as="geometry" />
        </mxCell>
        <mxCell id="6tT8eFnmWyRCT3pd-sS8-35" value="&lt;font color=&quot;#ff0000&quot; size=&quot;1&quot;&gt;&lt;b style=&quot;font-size: 14px&quot;&gt;CONTROL&lt;/b&gt;&lt;/font&gt;" style="text;html=1;strokeColor=none;fillColor=none;align=center;verticalAlign=middle;whiteSpace=wrap;rounded=0;dashed=1;" parent="6tT8eFnmWyRCT3pd-sS8-1" vertex="1">
          <mxGeometry x="640" y="195" width="70" height="20" as="geometry" />
        </mxCell>
        <mxCell id="WOFoK-ftA_ZLG-GcIct8-4" style="edgeStyle=orthogonalEdgeStyle;rounded=0;orthogonalLoop=1;jettySize=auto;html=1;exitX=0.5;exitY=1;exitDx=0;exitDy=0;entryX=0.5;entryY=0;entryDx=0;entryDy=0;" edge="1" parent="6tT8eFnmWyRCT3pd-sS8-1" source="6tT8eFnmWyRCT3pd-sS8-36" target="6tT8eFnmWyRCT3pd-sS8-31">
          <mxGeometry relative="1" as="geometry" />
        </mxCell>
        <mxCell id="6tT8eFnmWyRCT3pd-sS8-36" value="&lt;font style=&quot;font-size: 14px&quot;&gt;Encription with&lt;br&gt;user managed key&lt;/font&gt;" style="html=1;" parent="6tT8eFnmWyRCT3pd-sS8-1" vertex="1">
          <mxGeometry x="467.5" y="210" width="145" height="50" as="geometry" />
        </mxCell>
        <mxCell id="6tT8eFnmWyRCT3pd-sS8-37" value="" style="outlineConnect=0;html=1;whiteSpace=wrap;fontSize=12;fontStyle=0;verticalAlign=top;align=center;dashed=1;spacingTop=3;strokeWidth=4;fillColor=none;strokeColor=#FF0000;" parent="6tT8eFnmWyRCT3pd-sS8-1" vertex="1">
          <mxGeometry x="640" y="595" width="150" height="80" as="geometry" />
        </mxCell>
        <mxCell id="6tT8eFnmWyRCT3pd-sS8-38" value="&lt;span style=&quot;font-size: 14px&quot;&gt;Location&lt;br&gt;granularity&lt;/span&gt;" style="html=1;" parent="6tT8eFnmWyRCT3pd-sS8-1" vertex="1">
          <mxGeometry x="660" y="607.5" width="97.5" height="55" as="geometry" />
        </mxCell>
        <mxCell id="6tT8eFnmWyRCT3pd-sS8-40" value="" style="endArrow=classic;startArrow=classic;html=1;entryX=0.5;entryY=1;entryDx=0;entryDy=0;exitX=1;exitY=0.5;exitDx=0;exitDy=0;" parent="6tT8eFnmWyRCT3pd-sS8-1" source="6tT8eFnmWyRCT3pd-sS8-24" target="6tT8eFnmWyRCT3pd-sS8-20" edge="1">
          <mxGeometry width="50" height="50" relative="1" as="geometry">
            <mxPoint x="620" y="630" as="sourcePoint" />
            <mxPoint x="670" y="580" as="targetPoint" />
            <Array as="points">
              <mxPoint x="660" y="575" />
            </Array>
          </mxGeometry>
        </mxCell>
        <mxCell id="6tT8eFnmWyRCT3pd-sS8-41" style="edgeStyle=orthogonalEdgeStyle;rounded=0;orthogonalLoop=1;jettySize=auto;html=1;exitX=0.5;exitY=0;exitDx=0;exitDy=0;entryX=0.5;entryY=0;entryDx=0;entryDy=0;" parent="6tT8eFnmWyRCT3pd-sS8-1" source="6tT8eFnmWyRCT3pd-sS8-42" target="6tT8eFnmWyRCT3pd-sS8-22" edge="1">
          <mxGeometry relative="1" as="geometry">
            <Array as="points">
              <mxPoint x="248" y="20" />
              <mxPoint x="430" y="20" />
            </Array>
          </mxGeometry>
        </mxCell>
        <mxCell id="6tT8eFnmWyRCT3pd-sS8-42" value="&lt;span style=&quot;font-size: 14px&quot;&gt;Metadata&lt;br&gt;Manager&lt;br&gt;&lt;/span&gt;" style="html=1;" parent="6tT8eFnmWyRCT3pd-sS8-1" vertex="1">
          <mxGeometry x="199" y="547.5" width="97.5" height="55" as="geometry" />
        </mxCell>
        <mxCell id="6tT8eFnmWyRCT3pd-sS8-43" value="" style="endArrow=none;html=1;" parent="6tT8eFnmWyRCT3pd-sS8-1" edge="1">
          <mxGeometry width="50" height="50" relative="1" as="geometry">
            <mxPoint x="660" y="20" as="sourcePoint" />
            <mxPoint x="430" y="20" as="targetPoint" />
          </mxGeometry>
        </mxCell>
        <mxCell id="6tT8eFnmWyRCT3pd-sS8-44" value="" style="endArrow=classic;html=1;entryX=0.5;entryY=0;entryDx=0;entryDy=0;" parent="6tT8eFnmWyRCT3pd-sS8-1" target="6tT8eFnmWyRCT3pd-sS8-9" edge="1">
          <mxGeometry width="50" height="50" relative="1" as="geometry">
            <mxPoint x="660" y="20" as="sourcePoint" />
            <mxPoint x="550" y="120" as="targetPoint" />
          </mxGeometry>
        </mxCell>
        <mxCell id="6tT8eFnmWyRCT3pd-sS8-45" value="" style="outlineConnect=0;html=1;whiteSpace=wrap;fontSize=12;fontStyle=0;verticalAlign=top;align=center;dashed=1;spacingTop=3;strokeWidth=4;fillColor=none;strokeColor=#FF0000;" parent="6tT8eFnmWyRCT3pd-sS8-1" vertex="1">
          <mxGeometry x="175" y="535" width="135" height="75" as="geometry" />
        </mxCell>
        <mxCell id="6tT8eFnmWyRCT3pd-sS8-46" value="&lt;font color=&quot;#ff0000&quot; size=&quot;1&quot;&gt;&lt;b style=&quot;font-size: 14px&quot;&gt;MINIMIZE&lt;/b&gt;&lt;/font&gt;" style="text;html=1;strokeColor=none;fillColor=none;align=center;verticalAlign=middle;whiteSpace=wrap;rounded=0;dashed=1;" parent="6tT8eFnmWyRCT3pd-sS8-1" vertex="1">
          <mxGeometry x="199" y="625" width="95" height="20" as="geometry" />
        </mxCell>
        <mxCell id="6tT8eFnmWyRCT3pd-sS8-47" value="&lt;span style=&quot;font-size: 14px&quot;&gt;Web Accessible&lt;br&gt;Files (web servver)&lt;br&gt;&lt;/span&gt;" style="html=1;" parent="6tT8eFnmWyRCT3pd-sS8-1" vertex="1">
          <mxGeometry x="202.5" y="776.25" width="132.5" height="57.5" as="geometry" />
        </mxCell>
        <mxCell id="6tT8eFnmWyRCT3pd-sS8-48" value="" style="endArrow=classic;html=1;exitX=0.5;exitY=1;exitDx=0;exitDy=0;entryX=0;entryY=0.5;entryDx=0;entryDy=0;" parent="6tT8eFnmWyRCT3pd-sS8-1" source="6tT8eFnmWyRCT3pd-sS8-24" target="6tT8eFnmWyRCT3pd-sS8-38" edge="1">
          <mxGeometry width="50" height="50" relative="1" as="geometry">
            <mxPoint x="530" y="610" as="sourcePoint" />
            <mxPoint x="580" y="560" as="targetPoint" />
            <Array as="points">
              <mxPoint x="455" y="635" />
            </Array>
          </mxGeometry>
        </mxCell>
        <mxCell id="6tT8eFnmWyRCT3pd-sS8-49" value="&lt;font color=&quot;#ff0000&quot; size=&quot;1&quot;&gt;&lt;b style=&quot;font-size: 14px&quot;&gt;SEPARATE&lt;/b&gt;&lt;/font&gt;" style="text;html=1;strokeColor=none;fillColor=none;align=center;verticalAlign=middle;whiteSpace=wrap;rounded=0;dashed=1;" parent="6tT8eFnmWyRCT3pd-sS8-1" vertex="1">
          <mxGeometry x="202.5" y="679" width="95" height="20" as="geometry" />
        </mxCell>
        <mxCell id="6tT8eFnmWyRCT3pd-sS8-50" style="edgeStyle=orthogonalEdgeStyle;rounded=0;orthogonalLoop=1;jettySize=auto;html=1;exitX=0.5;exitY=1;exitDx=0;exitDy=0;" parent="6tT8eFnmWyRCT3pd-sS8-1" source="6tT8eFnmWyRCT3pd-sS8-24" target="6tT8eFnmWyRCT3pd-sS8-24" edge="1">
          <mxGeometry relative="1" as="geometry" />
        </mxCell>
        <mxCell id="6tT8eFnmWyRCT3pd-sS8-51" value="&lt;span style=&quot;font-size: 14px&quot;&gt;Request / Response&lt;/span&gt;" style="text;html=1;strokeColor=none;fillColor=none;align=center;verticalAlign=middle;whiteSpace=wrap;rounded=0;" parent="6tT8eFnmWyRCT3pd-sS8-1" vertex="1">
          <mxGeometry x="440" y="680" width="150" height="20" as="geometry" />
        </mxCell>
        <mxCell id="6tT8eFnmWyRCT3pd-sS8-52" value="&lt;font style=&quot;font-size: 14px&quot;&gt;Approves&lt;/font&gt;" style="text;html=1;strokeColor=none;fillColor=none;align=center;verticalAlign=middle;whiteSpace=wrap;rounded=0;" parent="6tT8eFnmWyRCT3pd-sS8-1" vertex="1">
          <mxGeometry x="170" y="315" width="80" height="20" as="geometry" />
        </mxCell>
        <mxCell id="6tT8eFnmWyRCT3pd-sS8-53" value="" style="endArrow=classic;startArrow=classic;html=1;entryX=0.25;entryY=1;entryDx=0;entryDy=0;" parent="6tT8eFnmWyRCT3pd-sS8-1" target="6tT8eFnmWyRCT3pd-sS8-24" edge="1">
          <mxGeometry width="50" height="50" relative="1" as="geometry">
            <mxPoint x="435" y="700" as="sourcePoint" />
            <mxPoint x="400" y="640" as="targetPoint" />
          </mxGeometry>
        </mxCell>
        <mxCell id="6tT8eFnmWyRCT3pd-sS8-54" value="DB" style="shape=umlFrame;whiteSpace=wrap;html=1;width=50;height=25;" parent="6tT8eFnmWyRCT3pd-sS8-1" vertex="1">
          <mxGeometry x="380" y="730" width="410" height="150" as="geometry" />
        </mxCell>
        <mxCell id="6tT8eFnmWyRCT3pd-sS8-55" value="" style="endArrow=classic;startArrow=classic;html=1;entryX=1;entryY=0.5;entryDx=0;entryDy=0;exitX=-0.009;exitY=0.504;exitDx=0;exitDy=0;exitPerimeter=0;" parent="6tT8eFnmWyRCT3pd-sS8-1" source="6tT8eFnmWyRCT3pd-sS8-54" target="6tT8eFnmWyRCT3pd-sS8-47" edge="1">
          <mxGeometry width="50" height="50" relative="1" as="geometry">
            <mxPoint x="530" y="710" as="sourcePoint" />
            <mxPoint x="580" y="660" as="targetPoint" />
          </mxGeometry>
        </mxCell>
        <mxCell id="WOFoK-ftA_ZLG-GcIct8-0" value="" style="outlineConnect=0;html=1;whiteSpace=wrap;fontSize=12;fontStyle=0;verticalAlign=top;align=center;dashed=1;spacingTop=3;strokeWidth=4;fillColor=none;strokeColor=#FF0000;" vertex="1" parent="6tT8eFnmWyRCT3pd-sS8-1">
          <mxGeometry x="588" y="450" width="152" height="75" as="geometry" />
        </mxCell>
      </root>
    </mxGraphModel>
  </diagram>
</mxfile>
